# xmcd
# 
# Track frame offsets:
#   150
#   12745
#   27151
#   41149
#   52944
#   75245
#   90173
#   108774
#   122340
#   135262
#   158507
#   172078
#   190169
#   202651
#   214620
#   228697
#   245392
# 
# Disc length: 3446 seconds
# 
# Revision: 0
# Processed by: cddbd v1.5.2PL0 Copyright (c) Steve Scherf et al.
# Submitted via: VOLTOCDX V1.0.24 
# 
DISCID=c40d7411
DTITLE=Various Artist - Chartbuster - The Greatest Hits of Conway Twitty
DYEAR=2008
DGENRE=Karaoke
TTITLE0=Don't Call Him A Cowboy - Conway Twitty
TTITLE1=I Don't Know A Thing About Love - Conway Twitty
TTITLE2=Feelings - Conway Twitty
TTITLE3=It's Only Make believe - Conway Twitty
TTITLE4=Red Neckin' Love Makin' Night - Conway Twitty
TTITLE5=Slow Hand - Conway Twitty
TTITLE6=Somebody's Needin' Somebody - Conway Twitty
TTITLE7=She Needs Someone To Hold Her When She Cries - Conway Twitty
TTITLE8=Your Love Had Taken Me That High - Conway Twitty
TTITLE9=That's My Job - Conway Twitty
TTITLE10=I've Already Loved You In My Mind - Conway Twitty
TTITLE11=Julia - Conway Twitty
TTITLE12=Hello Darlin' - Conway Twitty
TTITLE13=Desperado Love - Conway Twitty
TTITLE14=Linda On My Mind - Conway Twitty
TTITLE15=The Rose - Conway Twitty
TTITLE16=This Time I've Hurt her More Than She Loves Me - Conway Twitty
EXTD=
EXTT0=
EXTT1=
EXTT2=
EXTT3=
EXTT4=
EXTT5=
EXTT6=
EXTT7=
EXTT8=
EXTT9=
EXTT10=
EXTT11=
EXTT12=
EXTT13=
EXTT14=
EXTT15=
EXTT16=
PLAYORDER=
